<svg xmlns="http://www.w3.org/2000/svg" id="Layer_1" x="0" y="0" enable-background="new 0 0 550 550" version="1.1" viewBox="0 0 550 550" xml:space="preserve"><path fill="#4a5b6b" d="M533.9,430.1c0,0.9-0.4,1.6-0.9,2.2c-0.6,0.6-1.3,0.9-2.2,0.9H25c-1.7,0-3.1-1.4-3.1-3.1
				c0-0.9,0.4-1.6,0.9-2.2c0.6-0.6,1.3-0.9,2.2-0.9h505.8C532.5,427,533.9,428.4,533.9,430.1z"/><path fill="#5b6f8b" d="M447.9,190.5v215.7H134V190.5c0-5.1,4.2-9.3,9.3-9.3h295.3C443.7,181.1,447.9,185.3,447.9,190.5z"/><rect width="289.1" height="200.2" x="146.4" y="193.5" fill="#fff"/><path fill="#e7f0fd" d="M465.6,409.2v12.2c0,3.1-2.5,5.6-5.6,5.6H121.8c-3.1,0-5.6-2.5-5.6-5.6v-12.2c0-3.1,2.5-5.6,5.6-5.6
											H460C463.1,403.6,465.6,406.1,465.6,409.2z"/><polygon fill="#5b6f8b" points="321.5 414.4 328.3 403.6 253.5 403.6 260.3 414.4"/><path fill="#fa5814" d="M292.1,247.8c-1.5-0.2-2.8-0.6-4-1.5c-7.4-5.4-2.9-21.2,2-28c2.6-3.6,6.1-5.9,10-6.4
										c3.7-0.5,7.5,0.5,10.8,2.9c3.3,2.4,5.5,5.7,6.1,9.4c0.7,3.9-0.3,7.9-2.9,11.5l0,0C310,241.1,299.7,248.6,292.1,247.8z
										 M302.9,217.4c-0.7-0.1-1.3-0.1-2,0c-2.4,0.3-4.5,1.8-6.2,4.1c-4.5,6.2-6.4,17.8-3.3,20.1c3.1,2.2,13.5-3.2,18-9.4l0,0
										c1.7-2.3,2.4-4.8,1.9-7.2c-0.4-2.2-1.8-4.2-3.8-5.7C306.1,218.3,304.5,217.6,302.9,217.4z"/><path fill="#fa5814" d="M276.2,249.5c-6-0.6-12.4-3.3-16-6c-7.1-5.3-8.5-13.9-3.3-20.9c5.2-7,13.8-8.2,20.9-2.9
										c6.8,5,15.8,18.8,10.3,26.1C285.8,249.2,281.1,250,276.2,249.5z M269.4,222.3c-3-0.3-5.8,1-7.9,3.8
										c-3.3,4.4-2.5,9.5,2.1,12.9c6.1,4.6,17.7,6.6,20,3.6c2.3-3.1-3-13.6-9.2-18.1C272.8,223.2,271.1,222.5,269.4,222.3z"/><path fill="#3777da" d="M348.4,275.9v70.7c0,4-3.3,7.3-7.3,7.3h-95c-4,0-7.3-3.3-7.3-7.3v-70.7c0-4,3.3-7.3,7.3-7.3h95
									C345.2,268.6,348.4,271.9,348.4,275.9z"/><path fill="#3d84f2" d="M349.3,261.8l-112.9,17.4c-1.9,0.3-3.6-1-3.9-2.9l-2.9-18.9c-0.3-1.9,1-3.6,2.9-3.9l43.7-6.7l25.6-3.9
									l43.7-6.7c1.9-0.3,3.6,1,3.9,2.9l2.9,18.9C352.5,259.8,351.2,261.5,349.3,261.8z"/><polygon fill="#fff" points="303.9 291.1 303.9 353.8 283.4 353.8 283.4 288.1 287.5 291.1 291.6 288.1 295.7 291.1 299.8 288.1"/><polygon fill="#fff" points="299.1 243.2 304.8 280.2 300.3 277.9 296.6 281.5 292.1 279.2 288.5 282.7 284 280.4 278.8 246.4"/><g><path fill="#fa5814" d="M301.7,242.8l-25.6,3.9c-1.1-7.1,3.8-13.7,10.8-14.7C294,230.9,300.6,235.8,301.7,242.8z"/></g><g><path fill="#292561" d="M448.7,425.1c0,0.6,0.2,1.2,0.2,1.5c0.1,0.3,0.3,0.4,0.6,0.4h26.9c0.4,0,0.7-0.3,0.6-0.7l-1-4.3
										l-3.3-14l-10.7,1.1c0,0,0.8,6.3-7.6,8.7C449.2,419.2,448.5,422.8,448.7,425.1z"/><path fill="#191937" d="M458.8,415.6c3.6-2.8,3.1-6.5,3.1-6.5l10.7-1.1l1.8,7.6H458.8z"/><path fill="#292561" d="M487.2,425.1c0,0.6,0.2,1.2,0.2,1.5c0.1,0.3,0.3,0.4,0.6,0.4h26.9c0.4,0,0.7-0.3,0.6-0.7l-1-4.3
										l-3.3-14l-10.7,1.1c0,0,0.8,6.3-7.6,8.7C487.7,419.2,487,422.8,487.2,425.1z"/><path fill="#191937" d="M497.4,415.6c3.6-2.8,3.1-6.5,3.1-6.5l10.7-1.1l1.8,7.6H497.4z"/><path fill="#fa5814" d="M446.6,410.9h37.8c0.5-3,0.4-7.1-0.2-11.8c0-0.4-0.1-0.8-0.2-1.2c-0.7-4.9-1.8-10.3-3-15.1
									c0-0.1,0-0.2-0.1-0.2c-0.1-0.4-0.2-0.8-0.3-1.2c-0.4-1.8-0.7-3.9-0.9-6c-0.2-3-0.3-6.2-0.2-9.6c0-0.4,0-0.8,0-1.3
									c0.2-4.4,0.6-9.2,1.1-14v0c0.1-0.6,0.2-1.3,0.2-1.9c0.1-0.4,0.1-0.9,0.2-1.3c0.7-5.4,1.6-10.8,2.6-16.1
									c0.1-0.4,0.2-0.9,0.2-1.3c1.1-5.7,2.2-11.1,3.4-16.2c0.1-0.4,0.2-0.9,0.3-1.3c1.4-6.3,2.8-11.9,4-16.2
									c0.1-0.4,0.2-0.9,0.3-1.3c1.4-5.2,2.3-8.3,2.3-8.3l-18.8-1l-15.3-0.8c0,0-1,5.7-2.4,14.7c-0.1,0.4-0.1,0.8-0.2,1.3
									c-0.7,4.6-1.5,10-2.4,15.9c-0.1,0.4-0.1,0.8-0.2,1.2c-0.7,5-1.5,10.3-2.2,15.8c-0.1,0.4-0.1,0.8-0.2,1.2
									c-0.7,5.1-1.4,10.4-2,15.7c0,0.4-0.1,0.8-0.1,1.2c-0.6,5.2-1.2,10.5-1.8,15.6c0,0.4-0.1,0.8-0.1,1.2
									c-0.5,5.4-1,10.6-1.4,15.6c0,0.4-0.1,0.8-0.1,1.2c-0.4,5.7-0.7,11-0.7,15.6c0,0.4,0,0.8,0,1.3
									C446.3,405.5,446.4,408.4,446.6,410.9z"/><path fill="#e44000" d="M474,347.9c0.5,5.3,0.2,10.7,1.1,16c0.7,4.1,2.1,8.3,4.7,11.5c-0.2-3-0.3-6.2-0.2-9.6
									c0-0.4,0-0.8,0-1.3c0.2-4.4,0.6-9.2,1.1-14v0c-2.2-10.8-3-21.5-3.3-32.4c-0.2-5.1-0.3-10.1-0.5-15.2
									c-0.1-3.8,0.5-12,0.8-15.8c-4.7,6.3-8.4,18.4-8.8,26.3C468.4,325,472.9,336.3,474,347.9z"/><g><path fill="#fa5814" d="M474.7,314.3c0,0.4,0,0.8,0.1,1.2c0.2,4.4,0.7,8.5,1.5,12.2c0.2,1,0.4,2.1,0.7,3.2
											c0.1,0.4,0.2,0.8,0.2,1.2c0.8,4.2,1.9,9.5,3,15.3c0.1,0.4,0.2,0.8,0.2,1.2c0.1,0.6,0.2,1.2,0.4,1.8c0,0,0,0,0,0
											c0.8,4.3,1.7,8.9,2.6,13.5c0.1,0.4,0.2,0.8,0.2,1.2c1,5.2,2,10.4,3,15.3c0.1,0.4,0.2,0.8,0.2,1.2c1.1,5.6,2.1,10.9,3,15.4
											c0.1,0.4,0.2,0.8,0.2,1.2c1.3,6.7,2.3,11.4,2.6,12.3c0,0.1,0,0.1,0.1,0.2h33.1c0.7-1.8,1.2-3.7,1.6-5.8
											c0.1-0.5,0.2-0.9,0.2-1.4c0.7-4.8,0.6-10.2-1.1-16.3c-0.2-0.6-0.4-1.3-0.6-1.9c-1.3-4-3.2-8.3-6-12.9
											c-0.9-1.4-1.8-3.8-2.8-6.7c-0.2-0.5-0.3-0.9-0.5-1.4c-1.5-4.5-3-10.4-4.5-16.8c-0.1-0.4-0.2-0.9-0.3-1.3
											c-1.2-5.2-2.4-10.7-3.5-16.3h0c-0.1-0.4-0.2-0.8-0.3-1.3c-1.1-5.4-2.1-10.9-3.1-16c-0.1-0.4-0.1-0.8-0.2-1.3
											c-0.2-1.2-0.4-2.4-0.6-3.6c-0.8-4.6-1.5-8.8-2.1-12.2c-0.1-0.4-0.1-0.8-0.2-1.2c-0.9-5.2-1.4-8.4-1.4-8.4L477,270.9
											c0,0-0.8,6.1-1.6,14.6c-0.3,3.6-0.6,7.6-0.8,11.8c0,0.4,0,0.8,0,1.3C474.5,303.7,474.4,309.1,474.7,314.3z"/></g><g><path fill="#464ae4" d="M465.5,264c0,0-6.9,9.6-14,12.4c-1.8,0.7-3.7,0.9-5.4,0.4c-8.4-2.5-11.7-28.2-11.7-28.2l4.7-2.4
									l8.8,12.3c7.3-23.6,14.4-25,14.4-25l0.9,8.8L465.5,264z"/><path fill="#2624bd" d="M465.5,264c0,0-6.9,9.6-14,12.4c-0.7-0.9-1.1-2-0.8-3.2c0.5-2,2.6-3.1,3.9-4.7c1.3-1.6,1.8-3.8,1.8-5.8
									c0-2.1-0.5-4.1-0.7-6.2c-0.3-2.1-0.4-4.2-0.3-6.3c0.1-3.7,0.6-7.6,1.9-11c0.4-1.2,1.4-2.2,2.8-1.7c1.4,0.5,2.2,2.5,2.8,3.8
									c0.1,0.3,0.2,0.6,0.3,0.9L465.5,264z"/><path fill="#464ae4" d="M501.8,290c0,2.5-12.2,3.6-23.7,3.5c-1.4,0-2.9-0.1-4.3-0.1c-3.9-0.2-7.5-0.5-10.3-1
									c-3.1-0.6-5.1-1.4-5.1-2.4c1.4-14.9-6.3-44.4,1.2-54.8c3.2-4.5,28.4-6.2,37.4-0.5c0.1,0,0.1,0.1,0.2,0.1
									c0.3,0.2,0.6,0.4,0.8,0.6c0.7,0.6,1.4,1.4,1.9,2.5C506.1,250.1,501.8,290,501.8,290z"/><path fill="#2624bd" d="M501.8,290c0,2.5-12.2,3.6-23.7,3.5c-1.4,0-2.9-0.1-4.3-0.1c-3.9-0.2-7.5-0.5-10.3-1
									c0.4-0.6,1.1-1.1,1.8-1.4c1.2-0.5,2.5-0.7,3.6-1.5c1.6-1.1,2.3-3.2,2.6-5.2c0.3-1.9,0.4-4,1.3-5.8c1.4-2.8,4.6-4.3,7.6-4.9
									s6.3-0.6,9.3-1.4c2.3-0.6,4.8-2,5.5-4.3c0.9-2.7-0.7-5.5-1.9-8c-3.4-7.3-3.6-16-0.6-23.5c2,1.4,4.7,1.4,7.2,1.6
									C506.1,250.1,501.8,290,501.8,290z"/><path fill="#ffd1c4" d="M485,224.2l-0.4,7.1c0,2.2-11.6,2.2-11.6,0l0-5.8c0,0-4.9,1.2-7.4-1.3c-1.8-1.8-4-24.1,5.9-25.9
									c12.4-2.3,19.5,6,20.3,9.4C492.4,211,485,224.2,485,224.2z"/><path fill="#292561" d="M485,224.2c-1.4-3.7,2.2-5.3,3.8-7.9c0.1-0.1,0.1-0.2,0.1-0.4c0.2-0.8,0.1-2.1-0.6-2.8
									c-0.4-0.3-0.9-0.5-1.5-0.2c-2.3,0.7-0.9,2.2-1.6,2.6c-0.8,0.5-5-5.4-0.3-9.4c0,0-23.8,1.3-24.1-8.8
									c-0.3-10,10.5-13.4,15.5-10.6c4.2,2.3,5.8,5.6,9.5,7.2c0.8,0.4,1.7,0.6,2.7,0.8c0.2,0,0.4,0.1,0.6,0.1
									c5.4,1.1,7.1,4.2,4.1,8.4C493.2,203.2,502.3,207.5,485,224.2z"/><polygon points="429.1 232.9 429 233.1 428.9 232.9"/><path fill="#dde3ea" d="M452.5,260.3l-13.6-0.7c-0.5,0-1-0.4-1.2-0.9l-6.6-23c-0.2-0.8,0.4-1.7,1.3-1.6l13.5,0.6
									c0.6,0,1,0.4,1.2,0.9l6.6,23.1C454,259.5,453.4,260.3,452.5,260.3z"/></g><g><path fill="#ffd1c4" d="M475,276.4c0,0-9.9-5.1-9.5,2.2s12.1,2.7,12.1,2.7L475,276.4z"/></g><g><path fill="#464ae4" d="M494.8,233.5c13.9,5.6,26.4,45.4,12.6,49.5c-6.9,2.1-31-0.9-31-0.9l-1.8-7l25.7-5.1
								C500.3,270,485.9,241.8,494.8,233.5z"/></g><g><path fill="none" d="M492.7,236.3C492.7,236.3,492.7,236.3,492.7,236.3"/></g><g><path fill="#ffd1c4" d="M439.2,247.6c0.5,2.7-1.1,5.4-3.8,5.9c-2.6,0.5-4.5-9.4-1.9-9.9C436.1,243,438.7,244.8,439.2,247.6z"/></g></g><g><path fill="#ffd1c4" d="M91.1,280.3c-7.5,1.6-6.7-12.8-6.7-12.8l-16.9-20.7l13-16.6c0,0,5.7,29.6,9.9,35.8
								C90.4,266,98.5,278.7,91.1,280.3z"/><path fill="#292561" d="M54.7,425c0,0.7-0.2,1.2-0.2,1.6c-0.1,0.3-0.3,0.4-0.6,0.4H26.3c-0.4,0-0.7-0.4-0.6-0.7l1-4.5
												l3.4-14.4l10.9,1.2c0,0-0.8,6.5,7.8,8.9C54.2,419,54.9,422.7,54.7,425z"/><path fill="#191937" d="M44.3,415.3c-3.7-2.9-3.2-6.7-3.2-6.7l-10.9-1.2l-1.8,7.8H44.3z"/><path fill="#292561" d="M100.5,425c0,0.7-0.2,1.2-0.2,1.6c-0.1,0.3-0.3,0.4-0.6,0.4H72.1c-0.4,0-0.7-0.4-0.6-0.7l1-4.5
												l3.4-14.4l10.9,1.2c0,0-0.8,6.5,7.8,8.9C100,419,100.7,422.7,100.5,425z"/><path fill="#191937" d="M90.1,415.3c-3.7-2.9-3.2-6.7-3.2-6.7l-10.9-1.2l-1.8,7.8H90.1z"/><g><path fill="#e3b400" d="M86.4,346.3c-0.2,15.5,18.5,64.3,18.5,64.3H65c0,0-6.4-14.3-4.7-29c1.7-14.7,3.9-41.4-3.9-49.2
														S49.5,285,49.5,285l2.2-22.9c10,1.9,26.3,2.4,26.5-0.3C78.2,261.8,86.5,333,86.4,346.3z"/><path fill="#fcc800" d="M44.1,259.7c0,0-10,10-10.3,28.1c-0.3,21.9-0.4,47.7-2.3,64.3c-2.9,25.8-18.4,29.2-14.3,57.7
														h40.1c0,0,6.6-59.8,6.6-79.3c0-18.1,7.1-65,7.9-69.1S44.1,259.7,44.1,259.7z"/><path fill="#e3b400" d="M16.4,396.7c-0.4,4-0.3,8.5,0.5,13.9h40.7c0,0,0.6-5.6,1.5-13.9H16.4z"/><path fill="#44922b" d="M83,235.8c0,0.3-0.1,0.7-0.1,1c-0.4,3.2-1.6,9.6-2.7,15.1c-0.2,1-0.4,1.9-0.6,2.8
														c-0.5,2.7-1,4.9-1.3,6.2c-0.1,0.7-0.2,1-0.2,1c-0.2,2.7-16.5,2.2-26.5,0.3c-4.5-0.9-7.7-2-7.6-3.2
														c2.9-6.3,4-11.5,4-15.9c0-3.1-0.4-5.9-1.1-8.3c-0.7-2.4-1.6-4.6-2.5-6.6c-0.3-0.8-0.6-1.5-0.9-2.2
														c-0.6-1.4-1.1-2.8-1.3-4.2c0,0,0,0,0,0c-0.1-0.7-0.2-1.4-0.3-2.1c0-1,0-2.1,0.3-3.2c0.1-0.5,0.3-1.1,0.5-1.6
														c0.6-1.5,1.6-2.7,3-3.7c0.8-0.5,1.6-1,2.6-1.3h0c2.2-0.7,5.6-1.1,9.2-1.3c6.6-0.3,14.1,0.5,17.7,2.4
														C83.8,215.4,83.8,228.7,83,235.8z"/><path fill="#327f17" d="M79.6,254.6c-0.5,2.7-1,4.9-1.3,6.2c-0.1,0.7-0.2,1-0.2,1c-0.2,2.7-16.5,2.2-26.5,0.3
														c-4.5-0.9-7.7-2-7.6-3.2c2.9-6.3,4-11.5,4-15.9c0-3.1-0.4-5.9-1.1-8.3c-0.7-2.4-1.6-4.6-2.5-6.6
														c-0.3-0.8-0.6-1.5-0.9-2.2c-0.6-1.4-1.1-2.8-1.3-4.2c0,0,0,0,0,0c-0.1-0.7-0.2-1.4-0.3-2.1c0-1,0-2.1,0.3-3.2
														c0.4-0.1,0.8-0.2,1.2-0.2c2.8-0.1,5.4,2.9,7,4.9c3.8,4.8,5.6,11.1,4.7,17.2c-0.5,3-1.6,6-1.7,9c-0.1,3.1,1,6.5,3.8,7.8
														c1.8,0.8,3.8,0.7,5.7,0.4c3.5-0.5,7-1.4,10.6-1.5C75.6,253.9,77.7,254.1,79.6,254.6z"/><path fill="#ffd1c4" d="M59.2,196c-0.3,2.2-1.7,13-1.7,13c0,2.4,3.8,3.4,6.8,2.9c2.1-0.3,3.9-1.3,3.9-3c0,0-1-2.6-1.1-5.1
														c-0.1-1.1,0.1-2.2,0.7-3c0,0,4.5,2.6,7.2-1.9c1.7-2.8,2.5-10.2,1.2-15.9c-0.8-3.7-2.5-6.7-5.4-7.5
														c-7.4-2-10.2,10.9-10.2,10.9s-3.6-1.9-4.9,1.7C54.4,191.7,59.6,193.9,59.2,196z"/><path fill="#292561" d="M31.7,229.1c0.8,1.9,1.9,3.8,3,5.4c2.9,3.8,6.9,6.7,11.5,8.1c0.2,0,1.8,0.4,1.8,0.4
														c0-3.1-0.4-5.9-1.2-8.3c-0.7-2.4-1.6-4.6-2.4-6.6c-1-2.2-1.8-4.3-2.3-6.4c0,0,0,0,0,0c-0.5-2.2-0.4-4.5,0.5-6.9
														c1-2.4,3-4,5.6-5c2.2-0.7,5.6-1.1,9.2-1.3c0.3-2.3,1.4-10.6,1.6-12.4c0.3-2.2-4.8-4.3-3.6-7.8c1.3-3.5,4.9-1.7,4.9-1.7
														c-0.2,0.9,0.1,2.2,0.9,2.6c0.8,0.4,1.7-0.4,2-1.2c0.3-0.8,0.2-1.6,0.4-2.3c0.2-0.6,0.9-0.9,1.5-1.1
														c3-1,6.1,0.6,9.2,0.2c2-0.2,4-1.1,5.2-2.7c1.5-2.1,1.4-5.1,0.1-7.3c-1.3-2.2-3.6-3.8-6-4.7c-5-2-10.9-1.5-15.6,1.1
														s-8,7.6-8.8,12.9c-0.4,2.6-0.2,5.3-0.4,8c-0.1,2.7-0.7,5.4-2.3,7.5c-1.8,2.4-4.7,3.6-7.4,5c-2.8,1.4-4.9,3.1-6.3,6
														c-0.7,1.4-1.7,2.6-2.3,4.2c-0.6,1.6-1,3.3-1,5.1C29.7,222.7,30.5,226.1,31.7,229.1z"/><g><path fill="#f1c0ba" d="M62.6,196.2c0,0,2.1,6.6,4.5,7.6c-0.1-1.1,0.1-2.2,0.7-3C67.8,200.9,64.3,198.9,62.6,196.2z"/></g></g><g><path fill="#fa5814" d="M113,203.9H96c-2.9,0-5.3-2.4-5.3-5.3v-9.2h3.2v9.2c0,1.2,1,2.2,2.2,2.2h17c1.2,0,2.2-1,2.2-2.2v-9.2
											h3.2v9.2C118.3,201.5,115.9,203.9,113,203.9z"/><path fill="#c8e1ff" d="M143.7,189.4c-20.9-1.7-37.5,2-46.5,4.8c-2.9,0.9-5,1.7-6.2,2.2c-1,0.4-2.1,0.2-2.9-0.5
										c-3.3-2.9-4.4-7.3-4.8-9.8c-0.2-1.2,0.4-2.3,1.4-2.9c1.7-1,3.4-2,5.1-3c22.6-14.2,35.4-34,35.4-34L143.7,189.4z"/><path fill="#fa5814" d="M144.9,189.1c-3.6,1.5-9.4-3.8-14.1-12.3c-0.4-0.8-0.9-1.6-1.3-2.4c0,0,0,0,0,0
											c-0.6-1.3-1.2-2.6-1.8-3.9c-1-2.5-1.9-4.9-2.5-7.2c-0.1-0.4-0.2-0.8-0.3-1.2c-2.2-8.5-1.6-15.4,1.7-16.8
											c4.4-1.8,12.1,6.5,17.2,18.6C148.8,176,149.3,187.3,144.9,189.1z"/><path fill="#fa5814" d="M97.2,194.2c-2.9,0.9-5,1.7-6.2,2.2c-1,0.4-2.1,0.2-2.9-0.5c-3.3-2.9-4.4-7.3-4.8-9.8
											c-0.2-1.2,0.4-2.3,1.4-2.9c1.7-1,3.4-2,5.1-3C90.6,183,92.5,188.8,97.2,194.2z"/></g><g><path fill="#ffd1c4" d="M102,210c0,0-7.2,23.4-14.6,24.8c-8.9,1.8-21.8-2.4-21.8-2.4l3.9-12.3c0,0,12.9,3.1,14.4,2
									c1.5-1.2,12.6-15.4,12.6-15.4s1.1-14.9,9-9.3C113.3,202.9,102,210,102,210z"/></g><g><path fill="#44922b" d="M66.7,234.8c-15.4-0.3-21.4-6.6-23.2-9c-0.6-1.4-1.1-2.8-1.3-4.2c0,0,0,0,0,0
										c-0.5-2.2-0.4-4.5,0.5-6.9c0.6-1.5,1.6-2.7,3-3.7c9.6-1.8,23.6,7.8,23.6,7.8C70.3,219,67.7,235,66.7,234.8z"/></g></g><g><path fill="#ff9a05" d="M418.3,131.5v49.6c0,8.1-6.6,14.7-14.7,14.7h-59.1c-2.7,6.6-7,12.1-12.1,15.7c-0.6,0.5-1.5-0.1-1.4-0.9
							c1.3-5.5,0.8-10.6-0.7-14.8H316c-8.1,0-14.7-6.6-14.7-14.7v-49.6c0-8.1,6.6-14.7,14.7-14.7h87.6
							C411.7,116.8,418.3,123.4,418.3,131.5z"/></g><g><path fill="#fff" d="M322.7,152.1c-1.1-0.9-1.6-2.2-1.7-4c0-0.4,0-0.9,0-1.7c0-0.8,0-1.4,0-1.8c0.1-1.7,0.6-3,1.7-4
								c1.1-0.9,2.6-1.4,4.4-1.4c1.2,0,2.2,0.2,3.1,0.6c0.9,0.4,1.7,0.9,2.2,1.7c0.5,0.7,0.8,1.6,0.8,2.6c0,0.1,0,0.2-0.1,0.3
								c-0.1,0.1-0.2,0.1-0.3,0.1H330c-0.2,0-0.3,0-0.4-0.1s-0.2-0.2-0.2-0.4c-0.2-0.6-0.5-1.1-0.8-1.4c-0.4-0.3-0.9-0.4-1.5-0.4
								c-1.5,0-2.3,0.8-2.3,2.5c0,0.4,0,0.9,0,1.6c0,0.7,0,1.3,0,1.7c0.1,1.7,0.8,2.5,2.3,2.5c0.6,0,1.1-0.1,1.5-0.4
								s0.7-0.7,0.8-1.3c0.1-0.2,0.1-0.3,0.2-0.4c0.1-0.1,0.2-0.1,0.4-0.1h2.8c0.1,0,0.2,0,0.3,0.1c0.1,0.1,0.1,0.2,0.1,0.3
								c0,1-0.3,1.8-0.8,2.6c-0.5,0.7-1.3,1.3-2.2,1.7c-0.9,0.4-2,0.6-3.1,0.6C325.2,153.5,323.7,153,322.7,152.1z"/><path fill="#fff" d="M336.6,152.1c-1.1-0.9-1.6-2.2-1.7-4c0-0.4,0-0.9,0-1.7s0-1.3,0-1.7c0.1-1.7,0.6-3.1,1.7-4
								c1.1-0.9,2.6-1.4,4.4-1.4c1.8,0,3.3,0.5,4.4,1.4c1.1,0.9,1.7,2.3,1.7,4c0,0.8,0,1.3,0,1.7c0,0.4,0,1,0,1.7
								c-0.1,1.8-0.6,3.1-1.7,4c-1.1,0.9-2.5,1.4-4.4,1.4C339.1,153.5,337.7,153,336.6,152.1z M342.7,149.9c0.4-0.4,0.6-1,0.7-1.9
								c0-0.8,0-1.3,0-1.6c0-0.3,0-0.9,0-1.6c0-0.9-0.2-1.5-0.7-1.9s-1-0.6-1.6-0.6c-0.7,0-1.2,0.2-1.7,0.6c-0.4,0.4-0.6,1-0.7,1.9
								c0,0.4,0,0.9,0,1.6c0,0.7,0,1.3,0,1.6c0,0.9,0.2,1.5,0.7,1.9c0.4,0.4,1,0.6,1.7,0.6C341.7,150.5,342.2,150.3,342.7,149.9z"/><path fill="#fff" d="M349.5,153.2c-0.1-0.1-0.1-0.2-0.1-0.4V140c0-0.1,0-0.3,0.1-0.4c0.1-0.1,0.2-0.1,0.4-0.1h2.2
								c0.3,0,0.6,0.1,0.7,0.4l3.4,6.1l3.4-6.1c0.1-0.3,0.4-0.4,0.7-0.4h2.2c0.1,0,0.3,0,0.4,0.1s0.1,0.2,0.1,0.4v12.8
								c0,0.1,0,0.3-0.1,0.4s-0.2,0.1-0.4,0.1h-2.5c-0.1,0-0.2,0-0.3-0.1s-0.1-0.2-0.1-0.3v-7.2l-2.1,3.9c-0.2,0.3-0.4,0.5-0.7,0.5
								h-1.1c-0.3,0-0.5-0.2-0.7-0.5l-2.1-3.9v7.2c0,0.1,0,0.3-0.1,0.4s-0.2,0.1-0.4,0.1h-2.5C349.8,153.3,349.6,153.2,349.5,153.2z
								"/><path fill="#fff" d="M365.9,153.1c-0.1-0.1-0.1-0.2-0.1-0.3V140c0-0.1,0-0.3,0.1-0.4c0.1-0.1,0.2-0.1,0.3-0.1h2.8
								c0.1,0,0.3,0,0.4,0.1c0.1,0.1,0.1,0.2,0.1,0.4v12.8c0,0.1,0,0.2-0.1,0.3c-0.1,0.1-0.2,0.1-0.4,0.1h-2.8
								C366.1,153.3,366,153.2,365.9,153.1z"/><path fill="#fff" d="M372.4,153.1c-0.1-0.1-0.1-0.2-0.1-0.3V140c0-0.1,0-0.3,0.1-0.4s0.2-0.1,0.4-0.1h2.2
								c0.3,0,0.5,0.1,0.7,0.4l4.7,7.4V140c0-0.1,0-0.3,0.1-0.4c0.1-0.1,0.2-0.1,0.4-0.1h2.5c0.1,0,0.3,0,0.4,0.1s0.1,0.2,0.1,0.4
								v12.8c0,0.1,0,0.3-0.1,0.4s-0.2,0.1-0.4,0.1h-2.2c-0.3,0-0.5-0.1-0.7-0.4l-4.6-7.1v6.9c0,0.1,0,0.3-0.1,0.4s-0.2,0.1-0.4,0.1
								h-2.5C372.6,153.3,372.5,153.2,372.4,153.1z"/><path fill="#fff" d="M387.8,152.1c-1.1-0.9-1.6-2.3-1.7-4c0-0.4,0-1,0-1.8s0-1.4,0-1.8c0.1-1.7,0.6-2.9,1.7-3.9
								c1.1-0.9,2.6-1.4,4.5-1.4c1.3,0,2.4,0.2,3.3,0.6c0.9,0.4,1.7,0.9,2.1,1.6s0.8,1.3,0.8,2c0,0.1,0,0.2-0.1,0.3
								c-0.1,0.1-0.2,0.1-0.3,0.1H395c-0.1,0-0.2,0-0.3-0.1s-0.1-0.1-0.2-0.2c-0.2-0.4-0.4-0.7-0.8-0.9c-0.3-0.3-0.8-0.4-1.5-0.4
								c-1.5,0-2.3,0.8-2.4,2.4c0,0.4,0,0.9,0,1.7s0,1.3,0,1.7c0.1,1.7,0.9,2.5,2.4,2.5c0.8,0,1.4-0.2,1.8-0.6
								c0.4-0.4,0.7-1,0.7-1.7v-0.4H393c-0.1,0-0.3,0-0.4-0.1s-0.1-0.2-0.1-0.4v-1.5c0-0.1,0-0.3,0.1-0.4s0.2-0.1,0.4-0.1h5
								c0.1,0,0.3,0,0.4,0.1s0.1,0.2,0.1,0.4v2.3c0,1.1-0.3,2.1-0.8,2.9s-1.3,1.4-2.2,1.9c-0.9,0.4-2.1,0.6-3.3,0.6
								C390.4,153.5,388.9,153,387.8,152.1z"/><path fill="#fff" d="M335.3,176.6c-0.9-0.4-1.6-0.9-2-1.5c-0.5-0.6-0.7-1.3-0.7-2c0-0.1,0-0.2,0.1-0.3
								c0.1-0.1,0.2-0.1,0.3-0.1h2.6c0.2,0,0.3,0,0.4,0.1c0.1,0.1,0.2,0.1,0.3,0.3c0.2,0.3,0.4,0.6,0.8,0.8s0.8,0.3,1.4,0.3
								c0.7,0,1.3-0.1,1.6-0.3c0.4-0.2,0.6-0.5,0.6-0.9c0-0.3-0.1-0.5-0.3-0.7s-0.5-0.3-0.9-0.5c-0.4-0.1-1.1-0.3-1.9-0.5
								c-1.6-0.3-2.8-0.8-3.6-1.4c-0.8-0.6-1.2-1.6-1.2-2.8c0-0.8,0.2-1.5,0.7-2.2c0.5-0.6,1.1-1.1,1.9-1.5c0.8-0.4,1.8-0.5,2.9-0.5
								c1.2,0,2.2,0.2,3,0.6c0.8,0.4,1.5,0.9,2,1.5c0.5,0.6,0.7,1.2,0.7,1.8c0,0.1,0,0.2-0.1,0.3c-0.1,0.1-0.2,0.1-0.3,0.1h-2.8
								c-0.3,0-0.5-0.1-0.7-0.4c-0.1-0.3-0.3-0.5-0.6-0.7c-0.3-0.2-0.7-0.3-1.2-0.3c-0.6,0-1,0.1-1.3,0.3c-0.3,0.2-0.5,0.5-0.5,0.9
								c0,0.4,0.2,0.7,0.6,0.9c0.4,0.2,1.1,0.4,2.2,0.7c1.2,0.2,2.2,0.5,2.9,0.8c0.7,0.3,1.3,0.8,1.6,1.3c0.3,0.5,0.5,1.2,0.5,2
								c0,0.9-0.3,1.7-0.8,2.3s-1.2,1.2-2.1,1.5c-0.9,0.3-1.9,0.5-3.1,0.5C337.2,177.2,336.1,177,335.3,176.6z"/><path fill="#fff" d="M347.7,175.8c-1.1-0.9-1.6-2.2-1.7-4c0-0.4,0-0.9,0-1.7s0-1.3,0-1.7c0.1-1.7,0.6-3.1,1.7-4
								c1.1-0.9,2.6-1.4,4.4-1.4c1.8,0,3.3,0.5,4.4,1.4c1.1,0.9,1.7,2.3,1.7,4c0,0.8,0,1.3,0,1.7c0,0.4,0,1,0,1.7
								c-0.1,1.8-0.6,3.1-1.7,4c-1.1,0.9-2.5,1.4-4.4,1.4C350.3,177.2,348.8,176.7,347.7,175.8z M353.8,173.6c0.4-0.4,0.6-1,0.7-1.9
								c0-0.8,0-1.3,0-1.6c0-0.3,0-0.9,0-1.6c0-0.9-0.2-1.5-0.7-1.9s-1-0.6-1.6-0.6c-0.7,0-1.2,0.2-1.7,0.6c-0.4,0.4-0.6,1-0.7,1.9
								c0,0.4,0,0.9,0,1.6c0,0.7,0,1.3,0,1.6c0,0.9,0.2,1.5,0.7,1.9c0.4,0.4,1,0.6,1.7,0.6C352.8,174.2,353.4,174,353.8,173.6z"/><path fill="#fff" d="M361.8,175.8c-1.1-0.9-1.6-2.2-1.7-4c0-0.4,0-0.9,0-1.7s0-1.3,0-1.7c0.1-1.7,0.6-3.1,1.7-4
								c1.1-0.9,2.6-1.4,4.4-1.4c1.8,0,3.3,0.5,4.4,1.4c1.1,0.9,1.7,2.3,1.7,4c0,0.8,0,1.3,0,1.7c0,0.4,0,1,0,1.7
								c-0.1,1.8-0.6,3.1-1.7,4c-1.1,0.9-2.5,1.4-4.4,1.4C364.4,177.2,362.9,176.7,361.8,175.8z M367.9,173.6c0.4-0.4,0.6-1,0.7-1.9
								c0-0.8,0-1.3,0-1.6c0-0.3,0-0.9,0-1.6c0-0.9-0.2-1.5-0.7-1.9s-1-0.6-1.6-0.6c-0.7,0-1.2,0.2-1.7,0.6c-0.4,0.4-0.6,1-0.7,1.9
								c0,0.4,0,0.9,0,1.6c0,0.7,0,1.3,0,1.6c0,0.9,0.2,1.5,0.7,1.9c0.4,0.4,1,0.6,1.7,0.6C366.9,174.2,367.5,174,367.9,173.6z"/><path fill="#fff" d="M374.8,176.8c-0.1-0.1-0.1-0.2-0.1-0.3v-12.8c0-0.1,0-0.3,0.1-0.4s0.2-0.1,0.4-0.1h2.2
								c0.3,0,0.5,0.1,0.7,0.4l4.7,7.4v-7.2c0-0.1,0-0.3,0.1-0.4c0.1-0.1,0.2-0.1,0.4-0.1h2.5c0.1,0,0.3,0,0.4,0.1s0.1,0.2,0.1,0.4
								v12.8c0,0.1,0,0.3-0.1,0.4s-0.2,0.1-0.4,0.1h-2.2c-0.3,0-0.5-0.1-0.7-0.4l-4.6-7.1v6.9c0,0.1,0,0.3-0.1,0.4s-0.2,0.1-0.4,0.1
								h-2.5C375,177,374.9,176.9,374.8,176.8z"/></g><g><path fill="#c8e1ff" d="M212.4,356c0,12-9.7,21.7-21.7,21.7c-12,0-21.7-9.7-21.7-21.7c0-12,9.7-21.7,21.7-21.7
							C202.6,334.3,212.4,344,212.4,356z"/><path fill="#fff" d="M185,355.4v10.8c0,0.4-0.3,0.8-0.7,0.8H179c-0.4,0-0.8-0.4-0.8-0.8v-10.8c0-0.4,0.4-0.8,0.8-0.8h5.3
							C184.7,354.6,185,355,185,355.4z"/><path fill="#fff" d="M201.8,357.8c0.3,0.2,0.5,0.4,0.5,0.8c0.1,1.3-0.7,1.8-1.5,2c0.6,0.1,1.2,0.5,1.2,1.6
							c0,0.8-0.6,1.2-1.4,1.4c0.5,0.3,0.8,0.9,0.3,1.8c-1.3,3-12.7,0.6-13.9,0.1v-10c0,0,4-3.1,3.7-8.6c-0.1-1.5,2.2-3.1,3.6-0.5
							c1.8,3.4-0.6,7.8-0.6,7.8s8.4-1.9,9.4,1.2C203.4,356.4,202.7,357.2,201.8,357.8z"/></g><g><path fill="#c8e1ff" d="M411.9,356c0,12-9.7,21.7-21.7,21.7c-12,0-21.7-9.7-21.7-21.7c0-12,9.7-21.7,21.7-21.7
							C402.2,334.3,411.9,344,411.9,356z"/><path fill="#fff" d="M400.4,348.4c5.9,7.5-10.2,19.3-10.2,19.3s-16.9-12.2-9.8-19.8c0.7-0.8,1.7-1.4,2.8-1.7
							c3.1-0.7,6.1,1,7,3.8c0.9-2.5,3.4-4.2,6.2-3.9C398,346.3,399.4,347.2,400.4,348.4z"/></g></svg>